HIERARCHY
ROOT Hips
{
  OFFSET -35.2597 29.1586 114.425
  CHANNELS 6 Xposition Yposition Zposition Zrotation Xrotation Yrotation
  JOINT LeftUpLeg
  {
    OFFSET 8.64259 1.95398 -2.38835
    CHANNELS 3 Zrotation Xrotation Yrotation
    JOINT LeftLeg
    {
      OFFSET 43.7702 0 0
      CHANNELS 3 Zrotation Xrotation Yrotation
      JOINT LeftFoot
      {
        OFFSET 40.6238 0 0
        CHANNELS 3 Zrotation Xrotation Yrotation
        JOINT LeftToeBase
        {
          OFFSET 12.7242 0 0
          CHANNELS 3 Zrotation Xrotation Yrotation
          End Site
          {
            OFFSET 0 0 0
          }
        }
      }
    }
  }
  JOINT RightUpLeg
  {
    OFFSET -8.2249 1.95398 -2.59336
    CHANNELS 3 Zrotation Xrotation Yrotation
    JOINT RightLeg
    {
      OFFSET 43.5653 0 0
      CHANNELS 3 Zrotation Xrotation Yrotation
      JOINT RightFoot
      {
        OFFSET 40.6238 0 0
        CHANNELS 3 Zrotation Xrotation Yrotation
        JOINT RightToeBase
        {
          OFFSET 12.7242 0 0
          CHANNELS 3 Zrotation Xrotation Yrotation
          End Site
          {
            OFFSET 0 0 0
          }
        }
      }
    }
  }
  JOINT Spine
  {
    OFFSET 0.165834 0.87714 6.61349
    CHANNELS 3 Zrotation Xrotation Yrotation
    JOINT Spine1
    {
      OFFSET 7.38963 1.71661e-005 0
      CHANNELS 3 Zrotation Xrotation Yrotation
      JOINT Spine2
      {
        OFFSET 11.9445 1.14441e-005 0
        CHANNELS 3 Zrotation Xrotation Yrotation
        JOINT Spine3
        {
          OFFSET 14.7254 4.19617e-005 0
          CHANNELS 3 Zrotation Xrotation Yrotation
          JOINT Spine4
          {
            OFFSET 10.9679 0 0
            CHANNELS 3 Zrotation Xrotation Yrotation
            JOINT RightShoulder
            {
              OFFSET 2.46616 -1.6653 3.69651
              CHANNELS 3 Zrotation Xrotation Yrotation
              JOINT RightArm
              {
                OFFSET 13.0012 0 0
                CHANNELS 3 Zrotation Xrotation Yrotation
                JOINT RightForeArm
                {
                  OFFSET 28.7848 1.62311e-005 0
                  CHANNELS 3 Zrotation Xrotation Yrotation
                  JOINT RightHand
                  {
                    OFFSET 26.5688 1.62095e-005 0
                    CHANNELS 3 Zrotation Xrotation Yrotation
                    End Site
                    {
                      OFFSET 0 0 0
                    }
                  }
                }
              }
            }
            JOINT LeftShoulder
            {
              OFFSET 2.38034 -1.29275 -3.7523
              CHANNELS 3 Zrotation Xrotation Yrotation
              JOINT LeftArm
              {
                OFFSET 16.3182 6.07031e-005 0
                CHANNELS 3 Zrotation Xrotation Yrotation
                JOINT LeftForeArm
                {
                  OFFSET 27.0901 0 0
                  CHANNELS 3 Zrotation Xrotation Yrotation
                  JOINT LeftHand
                  {
                    OFFSET 24.5451 1.51738e-005 0
                    CHANNELS 3 Zrotation Xrotation Yrotation
                    End Site
                    {
                      OFFSET 0 0 0
                    }
                  }
                }
              }
            }
            JOINT Neck
            {
              OFFSET 5.0226 -0.0266342 0
              CHANNELS 3 Zrotation Xrotation Yrotation
              JOINT Head
              {
                OFFSET 6.69364 2.86102e-005 0
                CHANNELS 3 Zrotation Xrotation Yrotation
                End Site
                {
                  OFFSET 0 0 0
                }
              }
            }
          }
        }
      }
    }
  }
}
MOTION
Frames:	15
Frame Time:	0.0416667
-28.8987 100.383 -32.4612 84.0296 -43.1526 87.1703 -169.095 -28.2901 91.7234 -27.66 -2.27835 -1.65928 51.5214 -5.24081 -0.00255866 23.229 -0.150029 -4.87442 -177.566 43.4731 98.1241 -32.5783 -11.9056 -1.04414 71.9491 -8.72594 -3.07346 21.8075 1.30943 4.6373 -3.55379 7.85288 -91.7427 11.0848 -7.88199 -2.70719 -0.564205 -7.99343 -2.35576 -23.2253 -6.70356 -4.95814 -3.21265 -6.70354 -4.95813 96.9985 -12.5184 -96.8087 27.9748 16.5931 74.6471 -69.8703 -32.0596 -79.5321 -46.0153 19.336 -49.4664 -81.7124 -4.55685 84.3844 -20.0193 -11.9154 -2.02003 41.0744 -10.9699 -103.61 6.27251 -5.62694 -69.5886 28.3554 19.6123 1.00852 -12.0363 17.6968 8.09832 
-22.6679 100.139 -27.175 84.9976 -44.6948 85.9536 -168.615 -27.988 89.4151 -37.0351 -0.342696 -3.45928 52.7983 -4.92326 0.718893 25.8236 1.5324 -5.90774 -178.274 38.3999 97.1693 -22.454 -13.5828 -0.345167 70.1443 -7.96182 -2.49329 21.9055 1.316 4.51652 -3.43369 7.85396 -91.6304 11.0926 -7.59099 -2.51102 -0.557901 -7.69408 -2.17277 -23.2124 -6.4849 -4.68306 -3.19974 -6.48492 -4.68308 97.7475 -16.2518 -93.7003 20.2766 19.5156 73.1314 -83.6062 -28.8405 -87.7402 -38.3599 18.3824 -55.7912 -82.2891 -7.81577 83.6835 -19.9631 -10.3518 1.26789 41.5668 -10.9875 -103.439 4.8247 -4.63228 -68.8882 27.679 20.0151 2.54226 -12.5779 17.4778 8.50057 
-16.6379 99.832 -21.9048 85.9289 -45.8923 85.4031 -166.914 -26.0067 88.8221 -47.984 5.14973 -4.70799 53.2284 -5.07307 2.37466 28.0047 2.0794 -5.11664 -178.804 34.3356 96.7344 -16.6469 -11.3713 0.00669222 68.0777 -6.78928 -1.90083 22.7552 0.960507 4.58229 -3.27753 7.8601 -91.5837 11.0847 -7.25855 -2.45065 -0.567655 -7.35931 -2.12732 -23.2106 -6.18609 -4.52459 -3.19796 -6.18608 -4.5246 96.9208 -19.2363 -95.0274 20.3075 19.6271 70.2133 -82.8057 -28.4127 -87.416 -38.7046 18.4224 -55.4695 -83.0075 -12.0107 83.0011 -19.8952 -7.85234 6.55164 40.5407 -11.4252 -104.34 3.88165 -4.00522 -68.5988 27.1695 20.0829 3.61918 -13.4983 17.0262 9.4006 
-10.7992 99.1867 -16.6641 86.6577 -47.6726 85.3353 -163.813 -22.8228 89.5018 -60.123 9.44581 -5.3992 53.9573 -4.71803 3.53744 27.1379 2.28032 -6.2985 -179.2 31.8956 96.9614 -16.3954 -8.98964 0.192331 68.7342 -7.08071 -1.53773 21.6793 1.99397 2.90646 -3.05168 7.89665 -91.634 11.0086 -6.83178 -2.59842 -0.6463 -6.93947 -2.29404 -23.2697 -5.73495 -4.53565 -3.25703 -5.73496 -4.53565 95.5177 -22.7257 -97.4768 19.2943 20.496 68.5372 -81.3136 -24.5272 -87.4519 -37.9801 17.9249 -55.1753 -83.9023 -19.0941 82.6794 -20.1543 -6.93614 11.9004 42.7294 -12.2177 -104.299 6.27923 -5.53486 -68.6524 25.0398 20.708 7.60168 -11.3601 16.663 7.83997 
-5.12374 98.277 -11.4005 86.5101 -49.6113 84.7784 -159.839 -17.9664 90.6379 -73.2336 11.5189 -5.03192 55.114 -3.89827 4.87807 22.5228 0.903097 -7.42878 -179.746 30.6236 97.3053 -19.2708 -9.80069 0.395634 68.9148 -6.88764 -1.91637 20.3612 3.29313 0.946991 -2.72758 7.86344 -91.7185 11.0721 -6.22613 -2.81968 -0.586405 -6.34414 -2.54212 -23.1836 -5.09123 -4.56272 -3.17098 -5.09121 -4.56272 93.1942 -27.5581 -101.108 16.7251 22.4728 66.6067 -77.8777 -20.7609 -86.9332 -40.4593 19.1697 -55.1195 -84.9232 -27.2093 82.4765 -20.539 -7.35481 15.624 47.0404 -12.4728 -102.885 6.34912 -5.79238 -70.6668 22.2062 20.7902 11.3551 -8.31824 16.0361 6.68336 
0.58098 97.093 -6.18699 87.4066 -51.5792 85.7612 -155.098 -12.7581 92.7235 -86.3995 9.64134 -3.33043 55.8599 -3.27705 5.30859 22.1215 1.42355 -8.72191 179.555 27.2866 97.9538 -20.6611 -13.0218 0.763905 67.6976 -5.95252 -2.29124 21.5035 1.83553 3.53946 -2.33229 7.97613 -91.7888 10.8458 -5.4698 -3.04698 -0.816606 -5.59854 -2.80286 -23.3857 -4.3019 -4.55052 -3.37308 -4.3019 -4.55053 90.4098 -31.6666 -105.348 15.6322 24.2501 64.7952 -71.1663 -14.7912 -86.6265 -40.3832 19.7936 -56.6457 -85.8474 -34.4038 82.2633 -20.9138 -7.45653 22.4765 45.9543 -12.8028 -103.597 6.12697 -5.35662 -67.7072 21.9604 20.3304 12.2933 -7.63519 15.3397 6.78304 
6.23227 95.9851 -0.916121 88.4238 -52.8144 87.6874 -150.961 -5.66674 95.0874 -98.9437 5.46978 -0.452738 56.66 -2.2789 4.49712 21.1319 0.648791 -8.04791 178.854 23.9165 98.6862 -22.101 -15.2215 1.28057 62.5461 -1.82682 -0.438254 26.2685 -0.52462 4.90085 -1.98248 8.05328 -91.8674 10.6918 -4.80784 -3.27306 -0.973828 -4.94716 -3.0581 -23.5206 -3.60287 -4.56617 -3.50797 -3.60286 -4.56617 87.9125 -35.2102 -108.732 16.2928 25.4076 60.7648 -63.9747 -8.45762 -87.5423 -40.0394 20.4407 -58.5866 -86.6439 -40.8448 82.1692 -21.1506 -8.9565 30.0673 48.1368 -13.5686 -103.455 5.1891 -4.58413 -65.9458 21.4882 19.706 12.3019 -6.97534 14.8063 6.92933 
11.4799 94.9379 4.37759 89.3584 -54.1291 89.6218 -148.05 2.82376 96.072 -110.308 4.99479 2.34194 56.4254 -1.3359 6.15561 20.1182 1.38748 -10.1205 177.36 25.0393 100.32 -33.9653 -19.3977 2.53089 68.9564 -5.5839 -4.15939 4.60423 7.69292 6.20523 -1.49968 8.1171 -91.9537 10.5685 -3.88454 -3.53443 -1.10101 -4.03626 -3.36009 -23.6225 -2.64392 -4.53729 -3.60985 -2.64392 -4.53728 87.7251 -35.122 -109.113 20.5946 22.8197 54.379 -58.4713 -2.07371 -91.6667 -40.0978 20.6757 -59.0329 -86.4781 -45.0246 83.1953 -21.5012 -9.51925 35.4402 49.8379 -12.8576 -102.229 4.27257 -4.02766 -65.4676 20.6827 18.7351 13.3606 -6.01548 13.7285 5.61081 
16.0198 93.869 9.27622 88.0604 -55.8033 88.9489 -146.427 13.9932 93.7839 -120.754 6.10673 4.57144 55.9942 -0.610071 7.03847 18.0907 -0.842185 -7.72101 178.628 25.3829 102.523 -42.7664 -17.8734 0.679439 72.9366 -9.33956 -7.882 14.1273 5.03104 3.19585 -0.901016 7.99262 -91.9617 10.8319 -2.69978 -3.64991 -0.841065 -2.8577 -3.52771 -23.3436 -1.47918 -4.29149 -3.33098 -1.47918 -4.2915 89.9611 -34.3575 -105.265 26.1658 15.0394 43.9517 -52.3283 2.10019 -94.6577 -45.981 21.604 -54.2198 -85.4939 -48.7925 85.3252 -21.6306 -10.5129 44.07 52.9306 -13.85 -101.944 6.71046 -5.2841 -63.8256 19.7334 17.2963 14.2061 -4.85906 12.2442 5.20099 
20.0947 93.3026 13.8791 86.3032 -58.1879 89.4636 -146.726 27.2637 91.9079 -128.918 10.7645 5.75733 55.0614 -1.08338 8.86454 16.6779 -0.265486 -9.70815 -179.798 22.8416 105.457 -44.8677 -16.6858 -0.174258 76.6328 -13.4411 -9.95192 12.5211 5.5167 3.62712 -0.209007 7.96631 -92.0868 10.8988 -1.38076 -4.02075 -0.777493 -1.55625 -3.95623 -23.2628 -0.10977 -4.24945 -3.25016 -0.109765 -4.24946 90.5574 -34.8911 -103.979 27.0353 11.6715 31.3704 -49.0553 4.37797 -97.1269 -49.7858 22.0102 -51.1919 -84.3026 -50.4477 87.3445 -21.548 -11.9044 54.0917 52.6503 -14.1829 -102.29 8.6474 -6.19801 -62.2411 21.5053 16.0341 13.9706 -5.60276 10.7836 5.59864 
24.9092 93.4162 18.8494 84.8288 -61.9098 88.5612 -147.798 36.8645 89.5361 -132.061 14.2257 5.9507 58.502 1.40802 9.89962 15.9905 -0.438114 -9.89044 -179.437 17.2809 104.974 -44.0821 -20.8109 -0.905284 80.0713 -16.7018 -10.9054 12.3155 5.95742 2.86385 0.595953 8.00215 -91.9555 10.8588 0.283094 -3.91725 -0.818004 0.110544 -3.9259 -23.3108 1.44653 -3.65175 -3.29813 1.44652 -3.65176 89.5087 -33.8306 -106.291 26.2957 13.3045 22.1949 -44.6872 6.12596 -99.8447 -51.5837 22.0412 -49.5846 -82.9656 -50.721 89.3829 -21.137 -13.4626 63.4813 51.4027 -14.1119 -102.683 9.0119 -6.48649 -62.9447 23.7796 14.567 14.3503 -6.11098 8.9143 4.77334 
30.0619 93.3762 24.1316 83.7048 -64.2883 85.6504 -149.962 42.6698 86.8974 -131.458 15.2809 5.687 64.8385 5.67438 10.3984 18.3871 1.13437 -10.9436 -178.202 11.3675 101.968 -43.2068 -21.8732 -3.32318 82.3139 -18.3986 -8.8456 17.7234 5.09062 -0.584338 1.35795 7.99873 -91.5383 10.8951 1.99252 -3.24764 -0.778545 1.84773 -3.33209 -23.3047 2.87616 -2.49919 -3.292 2.87615 -2.4992 89.5942 -30.3468 -107.431 26.0078 14.5497 17.1582 -38.7974 7.74414 -103.793 -56.9907 22.6315 -46.0845 -81.8597 -48.8457 90.9003 -22.0488 -12.0221 71.8285 47.2887 -13.1861 -103.437 9.018 -6.5551 -63.4086 25.0936 12.029 14.3548 -6.05034 6.26908 4.38493 
35.5206 93.7607 29.4382 84.1051 -64.7069 83.19 -152.326 46.7081 83.477 -127.551 13.9903 5.26221 71.0582 10.1821 11.6209 20.9515 -0.784419 -5.6029 -178.576 3.32649 97.3054 -38.3221 -20.4603 -5.14288 84.3529 -18.9401 -4.07334 21.4556 3.19216 -0.0414799 2.07126 8.07871 -90.9641 10.7531 3.68006 -2.25655 -0.914915 3.57723 -2.41643 -23.4873 4.18787 -1.04483 -3.47469 4.18786 -1.04483 90.2735 -26.6346 -107.546 26.0566 17.7771 16.8175 -33.1893 9.52291 -109.296 -65.1223 22.9037 -40.7258 -81.4576 -45.9787 91.3096 -23.4307 -10.0215 78.2945 43.5361 -12.803 -104.57 10.955 -7.53518 -62.5983 25.9568 8.56033 14.4979 -5.44796 2.80413 3.11947 
41.1985 94.8365 35.2908 84.0279 -63.4621 80.4233 -155.237 50.1656 80.288 -120.218 10.8908 4.72592 73.6737 11.3436 11.6249 22.416 0.23863 -6.27675 178.133 -4.49677 92.2354 -30.3748 -20.8448 -5.37433 80.713 -15.6203 -1.09665 27.9537 -0.0578058 1.38974 2.65893 8.06806 -90.3458 10.7701 5.13528 -1.16352 -0.891437 5.07909 -1.38896 -23.5082 5.24689 0.437939 -3.49558 5.24688 0.43794 91.8357 -22.29 -105.989 26.4295 20.9539 20.2069 -27.3254 10.08 -114.885 -71.8302 24.4988 -38.8396 -80.7885 -42.6311 92.1594 -23.3723 -10.1158 83.6716 41.6831 -13.845 -106.485 9.35671 -6.83578 -64.0946 26.4929 4.50305 13.0975 -5.43386 -0.627742 2.45982 
47.0017 96.2742 41.5955 84.2073 -61.1747 78.4652 -159.338 52.7217 78.29 -110.985 5.53559 3.99772 76.8268 12.3211 9.88724 21.6736 -1.10981 -4.42056 174.197 -12.0347 87.4947 -22.3772 -25.2835 -5.09224 70.2393 -9.55856 -6.09015 32.5479 -2.52532 3.66357 3.10327 7.96661 -89.8464 10.9639 6.24941 -0.288302 -0.692076 6.23063 -0.564157 -23.3431 6.04603 1.61032 -3.33043 6.04604 1.61031 93.5583 -16.8087 -104.232 26.6808 23.4593 25.9223 -21.672 9.16562 -119.387 -76.9849 27.0944 -39.1729 -80.5709 -38.2007 92.2239 -23.8029 -9.52452 88.2874 42.18 -14.9702 -107.42 7.50373 -6.10469 -66.9544 26.6224 0.940878 12.2938 -7.17676 -3.72455 0.851685 
